PathFileType	4	(X/Y/Z)	./resultDataOpenSim/trcMotMarkerGrf/sub10/qtm-13-01.trc
DataRate	CameraRate	NumFrames	NumMarkers	Units	OrigDataRate	OrigDataStartFrame	OrigNumFrames
250.000000	250.000000	7	24	m	250.000000	167	444
Frame#	Time	L.Toe.Tip			R.Toe.Tip			L.Ankle.Lat			R.Ankle.Lat			L.Ankle.Med			R.Ankle.Med			L.Heel			R.Heel			L.Knee.Lat			R.Knee.Lat			L.Knee.Med			R.Knee.Med			L.Thigh.Upper			R.Thigh.Upper			L.ASIS			R.ASIS			V.Sacral			L.Acromium			R.Acromium			C7			L.Elbow			R.Elbow			L.Wrist.Lat			R.Wrist.Lat
		X1	Y1	Z1	X2	Y2	Z2	X3	Y3	Z3	X4	Y4	Z4	X5	Y5	Z5	X6	Y6	Z6	X7	Y7	Z7	X8	Y8	Z8	X9	Y9	Z9	X10	Y10	Z10	X11	Y11	Z11	X12	Y12	Z12	X13	Y13	Z13	X14	Y14	Z14	X15	Y15	Z15	X16	Y16	Z16	X17	Y17	Z17	X18	Y18	Z18	X19	Y19	Z19	X20	Y20	Z20	X21	Y21	Z21	X22	Y22	Z22	X23	Y23	Z23	X24	Y24	Z24

167	0.664	0.035466298	0.018611673	-0.10538137	-0.69338623	0.037989723	-0.0021686248	-0.093992374	0.023653294	-0.15020021	-0.80802869	0.11888869	0.038034318	-0.099503963	0.047610361	-0.067582474	-0.76854668	0.13216383	-0.041591973	-0.15444146	-0.020405464	-0.11374417	-0.85860685	0.12252213	-0.013941081	-0.1510777	0.4092126	-0.16641533	-0.54482075	0.41945941	0.087600444	-0.1467887	0.39007145	-0.047592794	-0.50491197	0.41192263	-0.034891079	-0.27242304	0.77971195	-0.21815084	-0.41594154	0.80634681	0.14087242	-0.23460205	0.88653521	-0.13489071	-0.30845408	0.88708775	0.10604786	-0.45993685	0.90024429	-0.081457846	-0.32902527	1.3595325	-0.19291089	-0.33941244	1.3559032	0.12585149	-0.41700715	1.3876528	-0.039535404	-0.52483868	1.0902029	-0.25297524	-0.3669925	1.0178565	0.26179118	-0.51190471	0.86015331	-0.33565592	-0.11864217	0.97934002	0.2967129
168	0.668	0.036533697	0.012954279	-0.10407425	-0.69263876	0.037926507	-0.0019859205	-0.093046812	0.021318451	-0.14968642	-0.8037277	0.12343564	0.039072567	-0.098384841	0.044944059	-0.067078182	-0.76320271	0.13536076	-0.039913482	-0.15417364	-0.021201216	-0.11361176	-0.85339757	0.12881141	-0.013584669	-0.14653166	0.4070335	-0.16610455	-0.5361717	0.41953574	0.088814008	-0.14239754	0.38800556	-0.047156285	-0.49551848	0.41115074	-0.033316227	-0.26429652	0.77896797	-0.21778374	-0.40765815	0.80631924	0.14140824	-0.22613272	0.88615429	-0.13498972	-0.29993463	0.88709163	0.10583064	-0.45172299	0.90004818	-0.081238111	-0.32233516	1.3592964	-0.19384075	-0.33360061	1.3558447	0.12488709	-0.4101454	1.3870452	-0.040702212	-0.51791186	1.0897614	-0.25283758	-0.36131822	1.0175873	0.26034821	-0.50557128	0.86033223	-0.33708642	-0.11329101	0.98079071	0.29717682
169	0.672	0.038353875	0.0071766522	-0.10269503	-0.69185023	0.037837892	-0.0017889345	-0.091580522	0.019439732	-0.14919815	-0.79889714	0.12807198	0.040124432	-0.096720397	0.042546993	-0.066409304	-0.75730787	0.13853537	-0.038105899	-0.15337475	-0.021213487	-0.11388458	-0.84749407	0.13520634	-0.013075761	-0.14226335	0.40475948	-0.16587616	-0.52710291	0.41954642	0.0901599	-0.13822049	0.38579639	-0.046790104	-0.48573496	0.41025927	-0.031545194	-0.25608973	0.77823437	-0.2174593	-0.39928836	0.8063607	0.14198476	-0.21775013	0.88573665	-0.13504562	-0.29134392	0.88715091	0.10554849	-0.44348178	0.89989702	-0.081154013	-0.31552238	1.3590616	-0.19477821	-0.32780264	1.3557747	0.12387986	-0.40320789	1.3864409	-0.041897846	-0.51083125	1.0892906	-0.25277022	-0.35552607	1.0172498	0.25870763	-0.49905524	0.86050623	-0.33864754	-0.10804535	0.98227568	0.29777892
170	0.676	0.041354789	0.0018844469	-0.10150156	-0.69098317	0.03772018	-0.001550642	-0.089309832	0.018107291	-0.14853034	-0.79339787	0.13277598	0.041213985	-0.094359158	0.040566413	-0.065460938	-0.75077594	0.1416003	-0.036159398	-0.15193505	-0.020471774	-0.11430213	-0.84060679	0.14175677	-0.01262161	-0.13827388	0.40241141	-0.16575123	-0.51757447	0.41947721	0.091616766	-0.13427806	0.38343656	-0.046495778	-0.47549852	0.40919929	-0.029574182	-0.24778164	0.77749457	-0.21719118	-0.39072476	0.80644319	0.14248894	-0.20959094	0.88527145	-0.13500717	-0.28269709	0.88724032	0.10518951	-0.4352794	0.89980524	-0.081146781	-0.30859289	1.3587972	-0.195722	-0.32197313	1.3557025	0.12283442	-0.39620987	1.3858419	-0.043112839	-0.50361276	1.0887937	-0.25287969	-0.34979313	1.0169732	0.25715548	-0.49234586	0.86065168	-0.34035174	-0.10289536	0.98380923	0.29852074
171	0.68	0.04545839	-0.0022614303	-0.10084965	-0.69000783	0.037552716	-0.0012445951	-0.086277262	0.017291663	-0.14750842	-0.78714727	0.13754497	0.042369988	-0.091354312	0.039062446	-0.064208767	-0.74352885	0.14448631	-0.034085171	-0.15005855	-0.019277262	-0.114422	-0.83270409	0.14849624	-0.012222806	-0.13450641	0.40008295	-0.16573879	-0.5075575	0.41929853	0.09317265	-0.13052622	0.38098772	-0.046242959	-0.46470859	0.40790778	-0.02740264	-0.23935731	0.77671805	-0.2170019	-0.3819173	0.80653373	0.14288198	-0.20172034	0.88474958	-0.13488082	-0.27402356	0.88733631	0.10473757	-0.42715726	0.89978031	-0.081103722	-0.30158361	1.3584917	-0.19666585	-0.31608722	1.3556552	0.12177889	-0.38917517	1.3852572	-0.044310574	-0.49625623	1.0882765	-0.25322076	-0.34434548	1.0168394	0.25595056	-0.48543476	0.8607548	-0.34219639	-0.097854456	0.9854102	0.29941734
172	0.684	0.049739443	-0.0049926239	-0.10078016	-0.68893132	0.037294202	-0.00086639555	-0.083072891	0.01688276	-0.14617767	-0.78020709	0.14237309	0.043613943	-0.088102451	0.037983908	-0.062768965	-0.73554424	0.14717177	-0.031912929	-0.14819853	-0.018070376	-0.11399796	-0.82411585	0.1554207	-0.011607501	-0.13083159	0.3979732	-0.16583571	-0.497008	0.41896064	0.094855335	-0.12683215	0.3786464	-0.045988957	-0.45326469	0.4063112	-0.025009209	-0.23081611	0.77590276	-0.21693915	-0.37290032	0.80659112	0.14321152	-0.1941663	0.88417182	-0.13470913	-0.26536273	0.88742886	0.10416599	-0.41911899	0.89981882	-0.080896842	-0.29450435	1.3581632	-0.19760491	-0.3101175	1.355672	0.12075562	-0.38211435	1.3847056	-0.0454262	-0.48874307	1.0877416	-0.25378732	-0.3392637	1.0168399	0.25514353	-0.47831275	0.86080983	-0.34415882	-0.092941372	0.98709512	0.30048179
173	0.688	0.052939781	-0.0065123211	-0.10089234	-0.68776139	0.036928242	-0.00044805611	-0.080628523	0.016729852	-0.14483911	-0.77269163	0.14726578	0.044953393	-0.085351595	0.03723209	-0.061380376	-0.72689855	0.1497105	-0.029679631	-0.14681791	-0.017205905	-0.11322321	-0.81509285	0.16254852	-0.010600817	-0.12700719	0.39640844	-0.16601743	-0.48586905	0.41841723	0.096703239	-0.12301846	0.37674874	-0.045711839	-0.44106577	0.40434315	-0.02235262	-0.22217446	0.77512057	-0.21706839	-0.36382337	0.80658177	0.14360701	-0.18700965	0.88355954	-0.13451355	-0.25675383	0.88751905	0.10343798	-0.41116794	0.89993987	-0.080471444	-0.28733047	1.357843	-0.1985376	-0.30402427	1.3557937	0.11980904	-0.37502527	1.3842143	-0.04643039	-0.48105079	1.0871938	-0.25454951	-0.33441863	1.0169261	0.25459482	-0.47096298	0.86081348	-0.3462059	-0.088168022	0.9888691	0.30171701
